<?xml version="1.0" encoding="UTF-8"?>
<svg version="1.1" xmlns="http://www.w3.org/2000/svg" width="240" height="240">
<path d="M0 0 C5.22921089 0.05666759 10.12418224 0.77462037 15.23046875 1.85546875 C16.09841064 2.03698486 16.96635254 2.21850098 17.8605957 2.40551758 C36.30818048 6.40626002 53.33929781 13.49051549 67.54296875 26.16796875 C68.76693359 27.17923828 68.76693359 27.17923828 70.015625 28.2109375 C76.95418028 34.0985215 82.22550613 40.84797233 87.54296875 48.16796875 C88.09758789 47.98097412 88.65220703 47.79397949 89.22363281 47.60131836 C91.74327195 46.75854069 94.26791755 45.93188246 96.79296875 45.10546875 C97.66566406 44.81091797 98.53835937 44.51636719 99.4375 44.21289062 C100.70400391 43.80200195 100.70400391 43.80200195 101.99609375 43.3828125 C102.77114258 43.1262085 103.54619141 42.86960449 104.34472656 42.60522461 C106.76938478 42.12293198 108.22144696 42.38873285 110.54296875 43.16796875 C111.66796875 46.91796875 111.66796875 46.91796875 110.54296875 49.16796875 C108.82470703 49.94580078 108.82470703 49.94580078 106.61328125 50.67578125 C105.42025391 51.07216797 105.42025391 51.07216797 104.203125 51.4765625 C103.36652344 51.74597656 102.52992188 52.01539063 101.66796875 52.29296875 C100.83910156 52.57011719 100.01023438 52.84726563 99.15625 53.1328125 C92.95052725 55.16796875 92.95052725 55.16796875 89.54296875 55.16796875 C89.87296875 96.08796875 90.20296875 137.00796875 90.54296875 179.16796875 C95.49296875 177.51796875 100.44296875 175.86796875 105.54296875 174.16796875 C108.85158802 173.33959574 112.08213968 172.56886223 115.41796875 171.91796875 C116.56265625 171.67820313 116.56265625 171.67820313 117.73046875 171.43359375 C144.99664222 165.88793135 169.1870778 170.38267177 195.54296875 179.16796875 C195.54296875 138.24796875 195.54296875 97.32796875 195.54296875 55.16796875 C193.89296875 54.50796875 192.24296875 53.84796875 190.54296875 53.16796875 C190.21296875 52.17796875 189.88296875 51.18796875 189.54296875 50.16796875 C190.20296875 49.17796875 190.86296875 48.18796875 191.54296875 47.16796875 C196.09053667 47.70297674 199.01126165 49.26835027 202.54296875 52.16796875 C203.28404903 55.09367657 203.28404903 55.09367657 203.27122498 58.56462097 C203.28091812 59.8812825 203.29061127 61.19794403 203.30059814 62.55450439 C203.28095895 64.01184852 203.26073675 65.46918489 203.23999023 66.92651367 C203.23993484 68.46240948 203.24250746 69.9983073 203.24751282 71.53419495 C203.25350901 75.70371727 203.22232607 79.87222907 203.18426394 84.04155135 C203.1504898 88.39992097 203.1498865 92.75829526 203.14552307 97.11677551 C203.13356298 104.43309092 203.0997409 111.74902963 203.05053711 119.06518555 C202.98110483 129.39619025 202.9517898 139.72702647 202.93013656 150.05822599 C202.91185682 158.06748818 202.88239726 166.07671533 202.8515625 174.0859375 C202.84680534 175.37859295 202.84680534 175.37859295 202.84195209 176.69736266 C202.82317466 181.64143177 202.79885997 186.58541417 202.76583672 191.52940941 C202.75648841 193.03027393 202.74882486 194.53114998 202.74292374 196.03203201 C202.73451684 198.07213529 202.71926355 200.11220701 202.70359802 202.15226746 C202.6967269 203.29654803 202.68985579 204.44082861 202.68277645 205.61978436 C202.54296875 208.16796875 202.54296875 208.16796875 201.54296875 209.16796875 C194.95228746 208.98921886 188.52199995 207.63430795 182.10546875 206.23046875 C152.96127968 200.20495737 121.82459097 199.65149478 93.17578125 208.49609375 C83.51055147 210.28364162 73.35016343 207.00312033 63.90820312 204.984375 C37.90188325 199.57506047 11.36157159 201.68663752 -14.36303711 207.4909668 C-23.75140051 209.58797546 -23.75140051 209.58797546 -28.45703125 209.16796875 C-30.26353193 207.36146807 -29.61094579 204.59409535 -29.63111877 202.15899658 C-29.64405472 200.85223969 -29.65699066 199.54548279 -29.6703186 198.1991272 C-29.67953948 196.73724464 -29.68859768 195.27536104 -29.69750977 193.81347656 C-29.71031508 192.28451265 -29.72345041 190.75555147 -29.7368927 189.22659302 C-29.85287111 175.25985781 -29.90943059 161.29240252 -29.95366001 147.32527542 C-29.98691617 136.99566542 -30.04649001 126.66693129 -30.14117104 116.33769727 C-30.20544895 109.08077041 -30.23918874 101.82408257 -30.25040954 94.5668819 C-30.25797948 90.22967119 -30.27923653 85.89351744 -30.33343697 81.55661774 C-30.3838403 77.47523955 -30.39649119 73.39547903 -30.38018608 69.31383896 C-30.38079035 67.8161885 -30.39509621 66.31847121 -30.4241333 64.82110214 C-30.63182002 53.51990554 -30.63182002 53.51990554 -27.74665642 50.19968414 C-25.67185758 48.86104621 -23.78408843 47.97718956 -21.45703125 47.16796875 C-20.82252328 46.8978812 -20.18801531 46.62779366 -19.53427982 46.34952164 C-17.74541217 45.61144348 -15.91325677 44.98110437 -14.08203125 44.35546875 C-12.27605469 43.72705078 -12.27605469 43.72705078 -10.43359375 43.0859375 C-7.45703125 42.16796875 -7.45703125 42.16796875 -5.45703125 42.16796875 C-5.46226807 40.93119385 -5.46750488 39.69441895 -5.47290039 38.42016602 C-5.49094686 33.8487215 -5.50246196 29.27728016 -5.51196289 24.70581055 C-5.51700392 22.72403434 -5.52383663 20.74226186 -5.5324707 18.76049805 C-5.5445464 15.91844766 -5.5502617 13.07644628 -5.5546875 10.234375 C-5.55984879 9.34271133 -5.56501007 8.45104767 -5.57032776 7.53236389 C-5.57052302 5.41056274 -5.51913155 3.28886095 -5.45703125 1.16796875 C-3.86129987 -0.42776263 -2.20605674 0.00964654 0 0 Z M1.54296875 7.16796875 C1.54296875 48.41796875 1.54296875 89.66796875 1.54296875 132.16796875 C8.47296875 133.15796875 15.40296875 134.14796875 22.54296875 135.16796875 C44.99597492 141.64769536 62.4147249 151.14555122 78.54296875 168.16796875 C79.87422973 169.50337122 81.20729723 170.83697771 82.54296875 172.16796875 C82.73034181 156.84255244 82.87116314 141.51718912 82.95746613 126.19088268 C82.99861437 119.07356019 83.05465229 111.95695181 83.14648438 104.84008789 C83.22654282 98.63267473 83.27790928 92.42577899 83.29567671 86.21786386 C83.30605411 82.9342789 83.33449151 79.65250776 83.3888092 76.36931419 C84.37814551 58.8172025 84.37814551 58.8172025 76.54664612 43.94821167 C75.55482582 43.06699142 75.55482582 43.06699142 74.54296875 42.16796875 C73.57587637 41.05853974 72.61532829 39.94334134 71.6640625 38.8203125 C57.49325013 24.4844834 41.14392074 15.53906719 21.73046875 10.29296875 C20.97862305 10.08953857 20.22677734 9.8861084 19.45214844 9.67651367 C13.36372681 8.14644954 7.97313125 7.75252898 1.54296875 7.16796875 Z M-22.45703125 55.16796875 C-22.45703125 96.41796875 -22.45703125 137.66796875 -22.45703125 180.16796875 C-16.51703125 178.18796875 -10.57703125 176.20796875 -4.45703125 174.16796875 C21.01478414 168.11319296 45.58922859 168.9818467 70.63671875 176.49609375 C73.58483319 177.44389448 73.58483319 177.44389448 76.54296875 176.16796875 C56.33351039 152.09308384 30.73101172 141.99958986 0.1640625 137.74609375 C-3.45703125 137.16796875 -3.45703125 137.16796875 -4.45703125 136.16796875 C-4.58217536 133.46043149 -4.64310253 130.77714771 -4.66235352 128.06811523 C-4.67225311 127.21940857 -4.68215271 126.3707019 -4.69235229 125.49627686 C-4.72406372 122.67723426 -4.74876264 119.85817477 -4.7734375 117.0390625 C-4.79399871 115.08992564 -4.81499495 113.14079331 -4.83641052 111.19166565 C-4.89171723 106.05095082 -4.94108845 100.91019518 -4.98925781 95.76940918 C-5.03941022 90.52787628 -5.09512888 85.28640295 -5.15039062 80.04492188 C-5.25807731 69.752655 -5.35949878 59.4603365 -5.45703125 49.16796875 C-11.46628338 49.16796875 -16.83039315 53.05797946 -22.45703125 55.16796875 Z M-22.45703125 187.16796875 C-22.45703125 188.15796875 -22.45703125 189.14796875 -22.45703125 190.16796875 C-18.13301233 189.24139327 -13.82838361 188.27113876 -9.54296875 187.1796875 C-8.85009766 187.0034082 -8.15722656 186.82712891 -7.44335938 186.64550781 C-6.06362813 186.29259783 -4.68468 185.93660808 -3.30664062 185.57714844 C3.55575387 183.82267418 10.22052296 183.00859222 17.29296875 182.9296875 C18.02023163 182.91998428 18.74749451 182.91028107 19.49679565 182.90028381 C21.8455767 182.87541437 24.19406923 182.86275957 26.54296875 182.85546875 C27.3454303 182.85285034 28.14789185 182.85023193 28.97467041 182.84753418 C47.47871898 182.8410744 64.92320979 185.42704209 82.54296875 191.16796875 C82.54296875 189.84796875 82.54296875 188.52796875 82.54296875 187.16796875 C50.24398112 173.80287042 9.38181554 169.74828556 -22.45703125 187.16796875 Z M89.54296875 187.16796875 C89.87296875 188.48796875 90.20296875 189.80796875 90.54296875 191.16796875 C91.62191406 190.84183594 92.70085937 190.51570312 93.8125 190.1796875 C124.83887027 181.01487792 159.68478576 178.57434015 190.57348633 189.58862305 C192.6804916 190.30907123 192.6804916 190.30907123 195.54296875 190.16796875 C195.29979179 188.20609724 195.29979179 188.20609724 194.54296875 186.16796875 C191.92561363 184.92320335 189.53291564 183.98285097 186.79296875 183.10546875 C186.02597656 182.84870361 185.25898438 182.59193848 184.46875 182.32739258 C154.59281585 172.5437698 118.12133144 172.8787874 89.54296875 187.16796875 Z M-22.45703125 198.16796875 C-22.45703125 199.15796875 -22.45703125 200.14796875 -22.45703125 201.16796875 C-14.59591347 200.2565348 -6.81026612 198.94360539 0.9921875 197.62890625 C28.73985357 193.07788146 55.18415196 195.52451968 82.54296875 201.16796875 C82.04796875 199.18796875 82.04796875 199.18796875 81.54296875 197.16796875 C49.22408743 187.60460387 8.73136518 181.1063739 -22.45703125 198.16796875 Z M89.54296875 198.16796875 C89.54296875 199.15796875 89.54296875 200.14796875 89.54296875 201.16796875 C90.19257568 201.05203369 90.84218262 200.93609863 91.51147461 200.81665039 C94.5006164 200.28493444 97.49052858 199.75767602 100.48046875 199.23046875 C101.50205078 199.04806641 102.52363281 198.86566406 103.57617188 198.67773438 C104.58486328 198.50048828 105.59355469 198.32324219 106.6328125 198.140625 C107.54925537 197.97828369 108.46569824 197.81594238 109.40991211 197.64868164 C116.50327956 196.56032814 123.4774632 196.00494568 130.65234375 195.96484375 C131.91414207 195.95452621 131.91414207 195.95452621 133.20143127 195.94400024 C135.89865509 195.92693108 138.5956938 195.92054698 141.29296875 195.91796875 C142.21137543 195.916297 143.1297821 195.91462524 144.07601929 195.91290283 C156.75790368 195.91151661 169.097584 196.28879839 181.57421875 198.77880859 C184.65420174 199.38762468 187.75538062 199.86130333 190.85546875 200.35546875 C192.41843594 200.62359283 193.98117041 200.89311811 195.54296875 201.16796875 C195.55841746 199.22032617 195.55841746 199.22032617 194.54296875 197.16796875 C182.25846092 191.22765195 167.03368941 188.76958197 153.54296875 188.16796875 C152.4240625 188.11511719 151.30515625 188.06226563 150.15234375 188.0078125 C130.02279087 187.53149592 108.17389947 190.19378341 89.54296875 198.16796875 Z " fill="#334155" transform="translate(33.45703125,26.83203125)"/>
<path d="M0 0 C2.25 0.375 2.25 0.375 3.25 1.375 C3.66700183 3.82261942 4.02062276 6.27473918 4.359375 8.734375 C6.10630341 13.9138645 10.61399504 16.7542911 14.90649414 19.86157227 C25.92452496 27.85179688 33.57470989 37.13112439 36.5625 50.625 C38.41790017 62.59316687 36.5111334 74.70119402 29.4375 84.6875 C26.12403319 88.77271097 22.15893676 93.36684863 17.0859375 95.125 C14.89576256 96.30277924 14.89576256 96.30277924 14.640625 99.4140625 C14.59421875 100.59742187 14.5478125 101.78078125 14.5 103 C14.44328125 104.18851562 14.3865625 105.37703125 14.328125 106.6015625 C14.28945312 107.97441406 14.28945312 107.97441406 14.25 109.375 C14.92546875 109.32859375 15.6009375 109.2821875 16.296875 109.234375 C17.18890625 109.19828125 18.0809375 109.1621875 19 109.125 C19.88171875 109.07859375 20.7634375 109.0321875 21.671875 108.984375 C24.25 109.375 24.25 109.375 26.55078125 110.98828125 C28.76248252 114.09483177 28.75315526 116.02638014 28.6875 119.8125 C28.68621094 120.92496094 28.68492187 122.03742188 28.68359375 123.18359375 C28.20505401 126.70581869 27.42385644 128.58004172 25.25 131.375 C24.58218506 131.66076904 23.91437012 131.94653809 23.22631836 132.2409668 C21.09069408 133.20413827 21.09069408 133.20413827 20.40039062 135.34277344 C20.23732422 136.13200195 20.07425781 136.92123047 19.90625 137.734375 C19.71160156 138.60320312 19.51695312 139.47203125 19.31640625 140.3671875 C19.12949219 141.27726563 18.94257813 142.18734375 18.75 143.125 C16.32847373 154.71492574 16.32847373 154.71492574 12.25 159.375 C9.55859375 160.80078125 9.55859375 160.80078125 6.6875 161.6875 C5.26244141 162.14576172 5.26244141 162.14576172 3.80859375 162.61328125 C2.54208984 162.99033203 2.54208984 162.99033203 1.25 163.375 C0.26 163.705 -0.73 164.035 -1.75 164.375 C-2.79119351 167.07623724 -3.65328845 169.66314435 -4.4375 172.4375 C-4.66244141 173.19611328 -4.88738281 173.95472656 -5.11914062 174.73632812 C-5.6737805 176.61266304 -6.21332298 178.49344855 -6.75 180.375 C-8.4 180.375 -10.05 180.375 -11.75 180.375 C-13.26403812 175.53007803 -12.11602172 172.1158989 -10.75 167.375 C-11.74 166.715 -12.73 166.055 -13.75 165.375 C-13.52734375 163.0078125 -13.52734375 163.0078125 -12.75 160.375 C-10.81640625 159.1171875 -10.81640625 159.1171875 -8.3125 158.25 C-6.96865234 157.76853516 -6.96865234 157.76853516 -5.59765625 157.27734375 C-2.01864427 156.14325353 1.58051628 155.11042228 5.21875 154.18359375 C7.60619328 153.45592973 7.60619328 153.45592973 9.25 150.375 C9.67204615 148.72309043 10.02393511 147.05261637 10.328125 145.375 C10.52019531 144.405625 10.71226562 143.43625 10.91015625 142.4375 C11.30283725 140.39867943 11.68050345 138.35690862 12.04296875 136.3125 C12.60752226 133.53770105 13.16033068 130.99020637 14.25 128.375 C16.23175325 127.33930986 18.23073917 126.33551326 20.25 125.375 C21.09504473 122.3842177 21.23701225 119.47257808 21.25 116.375 C20.18471069 116.51131836 20.18471069 116.51131836 19.09790039 116.65039062 C15.83680322 117.06436341 12.57469044 117.46973627 9.3125 117.875 C8.19552734 118.01808594 7.07855469 118.16117187 5.92773438 118.30859375 C-0.35472177 119.082386 -6.42062284 119.53608701 -12.75 119.375 C-13.41 117.725 -14.07 116.075 -14.75 114.375 C-16.32095079 115.06438811 -17.8814417 115.77762549 -19.4375 116.5 C-20.74267578 117.09167969 -20.74267578 117.09167969 -22.07421875 117.6953125 C-28.77380461 121.90089195 -30.80885951 127.2222166 -32.6875 134.5625 C-33.05319092 135.93656006 -33.05319092 135.93656006 -33.42626953 137.33837891 C-37.16813861 152.13153713 -39.35461532 167.31719599 -41.75 182.375 C-43.4 182.705 -45.05 183.035 -46.75 183.375 C-49.06898585 179.7770978 -48.75833719 177.41227179 -48.0625 173.265625 C-47.86132568 172.04697754 -47.66015137 170.82833008 -47.45288086 169.57275391 C-47.21975318 168.25662888 -46.98543328 166.94071455 -46.75 165.625 C-46.63496124 164.96070984 -46.51992249 164.29641968 -46.40139771 163.61199951 C-44.79381074 154.33854117 -42.93053977 145.14314014 -40.6875 136 C-40.45482422 135.0399707 -40.22214844 134.07994141 -39.98242188 133.09082031 C-37.68308294 124.157793 -34.84255256 116.46048385 -26.75 111.375 C-24.79911812 110.60582556 -22.84029318 109.85656828 -20.875 109.125 C-18.01895103 108.05805578 -18.01895103 108.05805578 -15.75 106.375 C-14.51038022 102.98042938 -14.4512499 99.95305357 -14.75 96.375 C-15.82894531 96.25511719 -15.82894531 96.25511719 -16.9296875 96.1328125 C-22.68673343 94.58590542 -27.83092796 89.34457325 -31.02734375 84.3984375 C-31.8125 82.625 -31.8125 82.625 -32.75 79.375 C-33.0903125 78.2303125 -33.0903125 78.2303125 -33.4375 77.0625 C-34.84097269 64.99263485 -32.99663076 55.27241731 -25.75 45.375 C-23.79763139 43.13739869 -22.33091085 41.96747691 -19.75 40.375 C-17 40.3125 -17 40.3125 -14.75 41.375 C-13.4375 43.4375 -13.4375 43.4375 -12.75 45.375 C-10.41705225 45.41741723 -8.08297433 45.41592937 -5.75 45.375 C-4.43031899 44.24906506 -4.43031899 44.24906506 -4.25 41.375 C-4.25981345 36.62528923 -7.14109823 33.83417538 -10.12109375 30.390625 C-13.48065415 26.23347112 -13.14094313 21.57334403 -13.09765625 16.453125 C-12.57182239 11.79742749 -10.72164403 8.90026538 -7.75 5.375 C-6.925 4.385 -6.1 3.395 -5.25 2.375 C-2.75 0.375 -2.75 0.375 0 0 Z M-3.75 11.375 C-6.02524748 15.57545688 -6.84976779 17.47708987 -6.3125 22.3125 C-5.06575654 26.36836162 -2.77594547 29.37551071 -0.08984375 32.61328125 C2.71059565 36.29549166 2.55224646 39.91686467 2.25 44.375 C0.21906161 49.75698674 0.21906161 49.75698674 -2.55078125 51.5234375 C-6.51420307 53.05811948 -10.57065342 52.84087224 -14.75 52.375 C-17.875 50.875 -17.875 50.875 -19.75 49.375 C-26.03354276 56.09189054 -27.28947318 63.61634564 -27.0390625 72.57421875 C-26.43278061 78.44859873 -24.000816 83.23604758 -19.75 87.375 C-11.06192484 92.2161976 -1.65671175 93.93065014 8.12890625 91.7265625 C16.0957774 89.13372822 22.55053684 84.99223629 26.625 77.5 C31.01161423 67.38749551 31.86567767 56.26901985 28.28125 45.78125 C24.03653017 35.87690372 16.55545617 29.4648125 8 23.25 C3.60052641 20.02723192 0.01398546 16.66695638 -1.75 11.375 C-2.41 11.375 -3.07 11.375 -3.75 11.375 Z M-7.75 98.375 C-7.75 102.995 -7.75 107.615 -7.75 112.375 C-2.8 112.045 2.15 111.715 7.25 111.375 C7.25 107.085 7.25 102.795 7.25 98.375 C2.3 98.375 -2.65 98.375 -7.75 98.375 Z " fill="#334155" transform="translate(185.75,3.625)"/>
<path d="M0 0 C7.40805742 1.79684797 13.80000912 4.50344095 20 9 C21.21445591 11.42891182 21.12924198 13.00719443 21.1328125 15.71875 C21.13474609 17.11673828 21.13474609 17.11673828 21.13671875 18.54296875 C21.13285156 19.51878906 21.12898438 20.49460937 21.125 21.5 C21.13080078 22.96373047 21.13080078 22.96373047 21.13671875 24.45703125 C21.13542969 25.38902344 21.13414063 26.32101563 21.1328125 27.28125 C21.13168457 28.13783203 21.13055664 28.99441406 21.12939453 29.87695312 C21 32 21 32 20 34 C13.51123658 33.57681978 8.63646216 31.13539535 3 28 C2.08347656 27.68933594 1.16695312 27.37867188 0.22265625 27.05859375 C-2.57246607 24.46978977 -2.38743476 23.47383591 -2.55859375 19.74609375 C-2.54396047 17.64289271 -2.50251794 15.53974676 -2.4375 13.4375 C-2.43169922 12.37080078 -2.42589844 11.30410156 -2.41992188 10.20507812 C-2.29467805 2.29467805 -2.29467805 2.29467805 0 0 Z M5 9 C5 12.96 5 16.92 5 21 C9.455 22.98 9.455 22.98 14 25 C14 21.04 14 17.08 14 13 C12.700625 12.34 11.40125 11.68 10.0625 11 C9.33160156 10.62875 8.60070312 10.2575 7.84765625 9.875 C6.19009928 8.92866597 6.19009928 8.92866597 5 9 Z " fill="#334155" transform="translate(56,106)"/>
<path d="M0 0 C5.08064409 1.58818313 8.22872902 6.31199073 10.6875 10.8671875 C12.97480639 16.41742859 13.48398945 21.31478873 11.38671875 27.0546875 C9.24269102 30.30769509 8.23426979 31.43216836 4.57421875 32.8046875 C0.14582884 33.41316856 -4.28216405 33.83413212 -8.40234375 31.85546875 C-11.61046297 29.35060719 -13.61547636 26.76617805 -14.42578125 22.8046875 C-14.79970767 15.281288 -11.81981721 9.74142373 -7.42578125 3.8046875 C-3.52726631 -0.2839989 -3.52726631 -0.2839989 0 0 Z M-1.42578125 7.8046875 C-4.96990237 11.68106998 -7.11407139 15.18632469 -7.73828125 20.4296875 C-7.57363939 22.7971793 -7.57363939 22.7971793 -6.42578125 24.6171875 C-3.1022099 26.59055799 -0.2451988 26.10781588 3.57421875 25.8046875 C5.94804545 23.84238537 5.94804545 23.84238537 6.01171875 20.1796875 C5.91279409 15.26942714 3.78141338 11.45894562 0.57421875 7.8046875 C-0.08578125 7.8046875 -0.74578125 7.8046875 -1.42578125 7.8046875 Z " fill="#334155" transform="translate(186.42578125,59.1953125)"/>
<path d="M0 0 C18.30957486 0.60031393 37.55160881 13.59922144 49.9296875 26.42578125 C51 28 51 28 50.9375 30.9375 C50.628125 31.618125 50.31875 32.29875 50 33 C45.90390319 32.48356638 44.06770009 31.47789602 41.1875 28.5625 C29.89673936 18.13305775 16.49970025 11.98969192 2.12890625 7.00390625 C1.42636719 6.67261719 0.72382812 6.34132813 0 6 C-0.875 3.4375 -0.875 3.4375 -1 1 C-0.67 0.67 -0.34 0.34 0 0 Z " fill="#334155" transform="translate(55,90)"/>
<path d="M0 0 C17.48714519 0.61358404 32.01711179 11.25477683 45 22 C45.90105469 22.68449219 46.80210938 23.36898437 47.73046875 24.07421875 C50 26 50 26 50.9375 28.625 C50.958125 29.40875 50.97875 30.1925 51 31 C50.34 31.66 49.68 32.32 49 33 C45.3814328 32.69970397 43.6467238 30.97266302 41.125 28.5 C30.73258804 19.02306968 18.89154313 13.26575201 6 8 C3.66294066 7.00845207 1.33142267 6.00476796 -1 5 C-0.67 3.35 -0.34 1.7 0 0 Z " fill="#334155" transform="translate(55,72)"/>
<path d="M0 0 C12.56596351 0.55848727 22.14091182 9.98403527 31 18 C31.62519531 18.54914063 32.25039062 19.09828125 32.89453125 19.6640625 C33.25933594 20.10492188 33.62414062 20.54578125 34 21 C33.6875 23.6875 33.6875 23.6875 33 26 C28.51372869 26.42178619 28.51372869 26.42178619 26.25390625 24.56640625 C25.69574219 23.90511719 25.13757813 23.24382812 24.5625 22.5625 C20.99853104 18.74735608 17.25612968 15.96231135 12.875 13.1875 C12.28920166 12.8150415 11.70340332 12.44258301 11.09985352 12.05883789 C8.33200016 10.33619336 5.56431183 8.78897143 2.62890625 7.3671875 C0 6 0 6 -0.9375 3.9375 C-1 2 -1 2 0 0 Z " fill="#334155" transform="translate(72,60)"/>
<path d="M0 0 C3.58311824 2.57049787 4.78702567 4.25458985 6 8.5 C6 12.4426352 5.49535546 13.9883641 3 17 C-0.20937409 19.32402951 -3.11506021 19.47570691 -7 19 C-9.69990662 17.20006226 -11.5418865 15.916227 -13 13 C-13.39447548 8.81855989 -13.45035186 6.69053952 -11.125 3.125 C-7.55800211 -0.44199789 -4.99020234 -0.5074782 0 0 Z M-6 7 C-6 8.65 -6 10.3 -6 12 C-4.35 11.67 -2.7 11.34 -1 11 C-1.33 9.68 -1.66 8.36 -2 7 C-3.32 7 -4.64 7 -6 7 Z " fill="#334155" transform="translate(161,20)"/>
<path d="M0 0 C5.56355058 -0.67375108 8.32224992 2.07775895 12.52807617 5.37011719 C14.03271715 6.56262396 15.51693298 7.780767 17 9 C18.06347656 9.87011719 18.06347656 9.87011719 19.1484375 10.7578125 C20.8125 12.25 20.8125 12.25 23 15 C22.875 17.875 22.875 17.875 22 20 C18.99172857 20.29513162 17.52658946 20.41974522 15.11328125 18.49609375 C14.51902344 17.81675781 13.92476562 17.13742188 13.3125 16.4375 C9.02391253 11.83731344 4.24219517 8.43750503 -1 5 C-0.67 3.35 -0.34 1.7 0 0 Z " fill="#334155" transform="translate(83,139)"/>
<path d="M0 0 C7.48409795 0 11.60986055 4.19305597 17 9 C17.66257812 9.556875 18.32515625 10.11375 19.0078125 10.6875 C20.6875 12.1875 20.6875 12.1875 23 15 C22.875 17.875 22.875 17.875 22 20 C17.22199973 19.55288438 14.514272 17.27685804 11.0625 14.1875 C7.20673787 10.7994045 3.32251876 7.76357757 -1 5 C-0.67 3.35 -0.34 1.7 0 0 Z " fill="#334155" transform="translate(83,121)"/>
<path d="M0 0 C3.125 0.375 3.125 0.375 6 1 C6.625 3.375 6.625 3.375 7 6 C6.34 6.66 5.68 7.32 5 8 C1.875 7.625 1.875 7.625 -1 7 C-1.625 4.625 -1.625 4.625 -2 2 C-1.34 1.34 -0.68 0.68 0 0 Z " fill="#334155" transform="translate(56,53)"/>
<path d="M0 0 C1.2065625 0.0309375 1.2065625 0.0309375 2.4375 0.0625 C3.0625 1.875 3.0625 1.875 3.4375 4.0625 C2.4475 5.5475 2.4475 5.5475 1.4375 7.0625 C-0.2125 6.7325 -1.8625 6.4025 -3.5625 6.0625 C-3.605221 4.39638095 -3.60313832 2.72867115 -3.5625 1.0625 C-2.5625 0.0625 -2.5625 0.0625 0 0 Z " fill="#334155" transform="translate(209.5625,10.9375)"/>
</svg>
